<svg width="90" height="28" viewBox="0 0 90 28" fill="none" xmlns="http://www.w3.org/2000/svg">
<g id="Amazon_logo 2" clip-path="url(#clip0_1_1561)">
<path id="path8" fill-rule="evenodd" clip-rule="evenodd" d="M55.8342 21.2101C50.6041 25.0651 43.0235 27.1218 36.4967 27.1218C27.3451 27.1218 19.1063 23.737 12.8733 18.1073C12.3836 17.6646 12.8224 17.0613 13.4101 17.4061C20.1366 21.3198 28.4538 23.6743 37.0452 23.6743C42.8394 23.6743 49.2134 22.4755 55.0742 19.9878C55.9596 19.6117 56.7 20.5676 55.8342 21.2101Z" fill="#FF9900"/>
<path id="path10" fill-rule="evenodd" clip-rule="evenodd" d="M58.0085 18.7223C57.3425 17.8683 53.5894 18.3188 51.9049 18.5186C51.3916 18.5813 51.3133 18.1347 51.7756 17.8134C54.7647 15.7097 59.6696 16.3169 60.2416 17.0221C60.8135 17.7312 60.0927 22.6478 57.2838 24.9945C56.8528 25.3549 56.4415 25.1629 56.6334 24.685C57.2642 23.1101 58.6784 19.5803 58.0085 18.7223Z" fill="#FF9900"/>
<path id="path12" fill-rule="evenodd" clip-rule="evenodd" d="M52.0224 2.96183V0.916817C52.0224 0.607324 52.2574 0.399689 52.5395 0.399689H61.695C61.9889 0.399689 62.2239 0.611242 62.2239 0.916817V2.668C62.22 2.96183 61.9732 3.34576 61.5344 3.95299L56.7902 10.7266C58.5531 10.6835 60.414 10.946 62.0124 11.847C62.3728 12.0508 62.4707 12.3485 62.4982 12.6423V14.8245C62.4982 15.1222 62.1691 15.4709 61.8243 15.2906C59.0075 13.8137 55.2662 13.6531 52.1517 15.3063C51.8343 15.4787 51.5013 15.1339 51.5013 14.8362V12.7638C51.5013 12.4308 51.5053 11.8627 51.8383 11.3573L57.3347 3.47504H52.5513C52.2574 3.47504 52.0224 3.2674 52.0224 2.96183Z" fill="black"/>
<path id="path14" fill-rule="evenodd" clip-rule="evenodd" d="M18.6245 15.7215H15.839C15.5726 15.7019 15.3611 15.5021 15.3415 15.2475V0.952018C15.3415 0.66603 15.5805 0.438805 15.8782 0.438805H18.4756C18.7459 0.45055 18.9614 0.658192 18.981 0.916757V2.78547H19.0319C19.7097 0.979439 20.9829 0.137146 22.6988 0.137146C24.4422 0.137146 25.5313 0.979439 26.3148 2.78547C26.9886 0.979439 28.5204 0.137146 30.1619 0.137146C31.3294 0.137146 32.6065 0.619016 33.3862 1.70029C34.2676 2.903 34.0874 4.65027 34.0874 6.18207L34.0835 15.2044C34.0835 15.4904 33.8445 15.7215 33.5468 15.7215H30.7652C30.4871 15.7019 30.2638 15.4786 30.2638 15.2044V7.62768C30.2638 7.02436 30.3186 5.51999 30.1854 4.94801C29.9778 3.98819 29.3549 3.71787 28.5479 3.71787C27.874 3.71787 27.1689 4.1684 26.8829 4.88925C26.5969 5.61009 26.6243 6.81672 26.6243 7.62768V15.2044C26.6243 15.4904 26.3853 15.7215 26.0876 15.7215H23.3061C23.024 15.7019 22.8046 15.4786 22.8046 15.2044L22.8007 7.62768C22.8007 6.0332 23.0632 3.68653 21.0848 3.68653C19.0828 3.68653 19.1612 5.97443 19.1612 7.62768V15.2044C19.1612 15.4904 18.9222 15.7215 18.6245 15.7215" fill="black"/>
<path id="path16" fill-rule="evenodd" clip-rule="evenodd" d="M70.1062 0.137146C74.2393 0.137146 76.4763 3.68653 76.4763 8.19965C76.4763 12.56 74.0042 16.0193 70.1062 16.0193C66.0475 16.0193 63.838 12.4699 63.838 8.04687C63.838 3.59642 66.0749 0.137146 70.1062 0.137146ZM70.1297 3.05579C68.0768 3.05579 67.9476 5.85298 67.9476 7.59634C67.9476 9.34361 67.9201 13.0732 70.1062 13.0732C72.2648 13.0732 72.3667 10.0645 72.3667 8.23099C72.3667 7.02436 72.3157 5.58267 71.9514 4.43872C71.638 3.44364 71.0151 3.05579 70.1297 3.05579Z" fill="black"/>
<path id="path18" fill-rule="evenodd" clip-rule="evenodd" d="M81.8356 15.7215H79.062C78.7838 15.7019 78.5605 15.4786 78.5605 15.2044L78.5566 0.905004C78.5801 0.642522 78.8112 0.438805 79.0933 0.438805H81.675C81.9179 0.45055 82.1177 0.615099 82.1726 0.838405V3.02445H82.2235C83.0031 1.06955 84.0961 0.137146 86.0197 0.137146C87.2694 0.137146 88.4878 0.587676 89.2713 1.82173C90 2.96568 90 4.88925 90 6.27217V15.271C89.9687 15.5217 89.7375 15.7215 89.4633 15.7215H86.67C86.4154 15.7019 86.2038 15.5139 86.1764 15.271V7.50623C86.1764 5.94309 86.3566 3.65519 84.433 3.65519C83.7553 3.65519 83.1324 4.10964 82.8229 4.79914C82.4311 5.67278 82.3802 6.54249 82.3802 7.50623V15.2044C82.3763 15.4904 82.1334 15.7215 81.8356 15.7215" fill="black"/>
<path id="path28" fill-rule="evenodd" clip-rule="evenodd" d="M44.7238 8.89305C44.7238 9.97824 44.7512 10.8832 44.2028 11.847C43.7601 12.6305 43.0549 13.1124 42.2753 13.1124C41.2058 13.1124 40.579 12.2975 40.579 11.0948C40.579 8.72067 42.7062 8.28973 44.7238 8.28973V8.89305ZM47.5328 15.6823C47.3486 15.8469 47.0822 15.8586 46.8746 15.7489C45.95 14.9811 45.7816 14.6246 45.2762 13.892C43.7483 15.4512 42.6631 15.9174 40.6847 15.9174C38.3381 15.9174 36.5164 14.4718 36.5164 11.5766C36.5164 9.31616 37.7387 7.77652 39.4859 7.02433C40.9981 6.35833 43.1097 6.24081 44.7238 6.05668V5.69625C44.7238 5.03417 44.7747 4.25064 44.383 3.67867C44.0461 3.16546 43.3957 2.9539 42.8198 2.9539C41.7582 2.9539 40.814 3.49846 40.5829 4.62674C40.5359 4.87747 40.3517 5.12428 40.0971 5.13603L37.3978 4.84612C37.1706 4.7952 36.916 4.61106 36.9826 4.2624C37.6015 0.987249 40.5633 0 43.2116 0C44.5671 0 46.3379 0.360424 47.4074 1.38685C48.7629 2.65224 48.6336 4.34075 48.6336 6.17812V10.5189C48.6336 11.8234 49.1743 12.3954 49.6835 13.1006C49.8598 13.3513 49.899 13.653 49.6718 13.841C49.1037 14.3151 48.093 15.1965 47.5367 15.6902L47.5328 15.6823" fill="black"/>
<path id="path30" fill-rule="evenodd" clip-rule="evenodd" d="M8.20746 8.89326C8.20746 9.97845 8.23488 10.8834 7.68642 11.8472C7.24372 12.6307 6.54246 13.1126 5.75893 13.1126C4.68942 13.1126 4.06651 12.2977 4.06651 11.095C4.06651 8.72089 6.19379 8.28995 8.20746 8.28995V8.89326ZM11.0164 15.6825C10.8323 15.8471 10.5659 15.8588 10.3582 15.7491C9.43368 14.9813 9.26914 14.6248 8.75985 13.8922C7.23197 15.4514 6.1507 15.9176 4.16837 15.9176C1.82562 15.9176 0 14.472 0 11.5769C0 9.31637 1.22622 7.77674 2.96957 7.02455C4.48178 6.35855 6.59339 6.24102 8.20746 6.05689V5.69647C8.20746 5.03438 8.25839 4.25086 7.87054 3.67888C7.52971 3.16567 6.87938 2.95412 6.3074 2.95412C5.24572 2.95412 4.29765 3.49867 4.06651 4.62695C4.0195 4.87768 3.83537 5.12449 3.58464 5.13625L0.88147 4.84634C0.654246 4.79541 0.403516 4.61128 0.466199 4.26261C1.0891 0.987462 4.04692 0.000213623 6.69525 0.000213623C8.05075 0.000213623 9.82153 0.360637 10.891 1.38706C12.2465 2.65246 12.1173 4.34096 12.1173 6.17834V10.5191C12.1173 11.8237 12.6579 12.3956 13.1672 13.1008C13.3474 13.3515 13.3866 13.6532 13.1594 13.8412C12.5913 14.3153 11.5806 15.1968 11.0242 15.6904L11.0164 15.6825" fill="black"/>
</g>
<defs>
<clipPath id="clip0_1_1561">
<rect width="90" height="27.1219" fill="white"/>
</clipPath>
</defs>
</svg>
