<svg width="90" height="90" viewBox="0 0 90 90" fill="none" xmlns="http://www.w3.org/2000/svg">
<g id="apple 1" clip-path="url(#clip0_1_1576)">
<g id="Group">
<g id="Group_2">
<path id="Vector" d="M61.8711 0C57.073 0.331873 51.4649 3.4031 48.1968 7.40246C45.2156 11.0306 42.7631 16.4193 43.7193 21.6561C48.9618 21.8192 54.3786 18.6749 57.5174 14.608C60.4536 10.8224 62.6755 5.46747 61.8711 0Z" fill="black"/>
</g>
</g>
<g id="Group_3">
<g id="Group_4">
<path id="Vector_2" d="M80.8329 30.1948C76.226 24.418 69.7517 21.0655 63.6374 21.0655C55.5655 21.0655 52.1512 24.9298 46.5431 24.9298C40.7606 24.9298 36.3675 21.0767 29.3869 21.0767C22.5301 21.0767 15.2289 25.2673 10.5995 32.4335C4.09146 42.5247 5.2052 61.4978 15.752 77.6583C19.5264 83.4408 24.5663 89.9432 31.1588 89.9995C37.0256 90.0557 38.6794 86.2364 46.6275 86.197C54.5755 86.152 56.083 90.0501 61.9386 89.9882C68.5367 89.9376 73.8523 82.732 77.6267 76.9495C80.3323 72.8039 81.3391 70.7171 83.4372 66.0371C68.1767 60.2265 65.7299 38.5254 80.8329 30.1948Z" fill="black"/>
</g>
</g>
</g>
<defs>
<clipPath id="clip0_1_1576">
<rect width="90" height="90" fill="white"/>
</clipPath>
</defs>
</svg>
