<svg width="90" height="90" viewBox="0 0 90 90" fill="none" xmlns="http://www.w3.org/2000/svg">
<g id="facebook 2" clip-path="url(#clip0_1_1553)">
<g id="Group">
<path id="Vector" d="M90 45C90 67.4613 73.5434 86.0783 52.0312 89.4533V58.0078H62.5166L64.5117 45H52.0312V36.559C52.0312 32.9994 53.775 29.5312 59.3648 29.5312H65.0391V18.457C65.0391 18.457 59.8887 17.5781 54.965 17.5781C44.6871 17.5781 37.9688 23.8078 37.9688 35.0859V45H26.543V58.0078H37.9688V89.4533C16.4566 86.0783 0 67.4613 0 45C0 20.148 20.148 0 45 0C69.852 0 90 20.148 90 45Z" fill="#1877F2"/>
<path id="Vector_2" d="M62.5166 58.0078L64.5117 45H52.0312V36.5588C52.0312 33.0001 53.7746 29.5312 59.3647 29.5312H65.0391V18.457C65.0391 18.457 59.8894 17.5781 54.9659 17.5781C44.6869 17.5781 37.9688 23.8078 37.9688 35.0859V45H26.543V58.0078H37.9688V89.4531C40.2599 89.8126 42.608 90 45 90C47.392 90 49.7401 89.8126 52.0312 89.4531V58.0078H62.5166Z" fill="white"/>
</g>
</g>
<defs>
<clipPath id="clip0_1_1553">
<rect width="90" height="90" fill="white"/>
</clipPath>
</defs>
</svg>
