<svg width="90" height="90" viewBox="0 0 90 90" fill="none" xmlns="http://www.w3.org/2000/svg">
<g id="iconmonstr-behance-1 1" clip-path="url(#clip0_1_1604)">
<path id="Vector" d="M82.5 26.25H56.25V18.75H82.5V26.25ZM88.9725 63.75C87.315 68.6138 81.3638 75 69.8438 75C58.3163 75 48.9788 68.5163 48.9788 53.7188C48.9788 39.0562 57.6975 31.5187 69.4763 31.5187C81.0338 31.5187 88.0913 38.2013 89.6325 48.1163C89.925 50.0138 90.0413 52.5712 89.9888 56.1413H59.8875C60.375 68.1825 72.9488 68.5612 77.0925 63.75H88.9725ZM60.15 48.75H78.7688C78.375 42.9487 74.5088 40.4288 69.48 40.4288C63.9825 40.4288 60.9413 43.3088 60.15 48.75ZM24.2475 74.955H0V18.8287H26.0738C46.6088 19.1325 46.9988 39.2437 36.2738 44.7262C49.2525 49.4513 49.6875 74.955 24.2475 74.955ZM11.25 41.25H24.69C34.095 41.25 35.5875 30 23.52 30H11.25V41.25ZM23.9663 52.5H11.25V63.81H23.7788C35.235 63.81 34.5338 52.5 23.9663 52.5Z" fill="black"/>
</g>
<defs>
<clipPath id="clip0_1_1604">
<rect width="90" height="90" fill="white"/>
</clipPath>
</defs>
</svg>
