<svg width="90" height="90" viewBox="0 0 90 90" fill="none" xmlns="http://www.w3.org/2000/svg">
<g id="linkedin 2" clip-path="url(#clip0_1_1548)">
<g id="Group">
<path id="Path_2525" d="M85.5842 78.4582C86.3626 78.4659 86.9999 77.8412 87.0077 77.0628C87.008 77.0312 87.0073 76.9994 87.0054 76.9677C87.0054 75.9106 86.3677 75.4056 85.0591 75.4056H82.9448V80.94H83.7401V78.5275H84.7174L84.7397 78.5568L86.256 80.94H87.1065L85.475 78.4735L85.5842 78.4582ZM84.6647 77.904H83.7425V76.0329H84.9111C85.5149 76.0329 86.2031 76.1316 86.2031 76.922C86.2031 77.8312 85.5067 77.904 84.6598 77.904H84.6647Z" fill="#0066C5"/>
<path id="Path_2520" d="M64.8415 71.5224H53.5658V53.8641C53.5658 49.6533 53.4906 44.2327 47.7012 44.2327C41.8284 44.2327 40.93 48.8206 40.93 53.5575V71.5212H29.6543V35.2086H40.4791V40.1711H40.6306C42.8379 36.3973 46.9419 34.1432 51.3109 34.3053C62.7393 34.3053 64.8466 41.8224 64.8466 51.6018L64.8415 71.5224ZM16.9312 30.2449C13.3174 30.2456 10.3873 27.3164 10.3866 23.7027C10.3859 20.0888 13.3151 17.1587 16.9288 17.158C20.5427 17.1573 23.4728 20.0865 23.4735 23.7002C23.4742 27.3141 20.5451 30.2444 16.9312 30.2449ZM22.5691 71.5226H11.2816V35.2086H22.5691V71.5226ZM70.463 6.68688H5.61551C2.55076 6.65225 0.0374414 9.10721 0 12.172V77.2884C0.0362109 80.3547 2.54918 82.8121 5.61551 82.7794H70.463C73.5354 82.8179 76.0583 80.3607 76.1008 77.2884V12.1674C76.057 9.09649 73.5339 6.6417 70.463 6.68213V6.68688Z" fill="#0066C5"/>
<path id="Path_2526" d="M84.7608 72.9402C81.8951 72.9678 79.5941 75.3132 79.6217 78.179C79.6493 81.0448 81.9947 83.3456 84.8607 83.3181C87.7264 83.2905 90.0274 80.9451 89.9998 78.0793C89.9726 75.2524 87.6876 72.9674 84.8607 72.9404H84.7608V72.9402ZM84.8795 82.7219C82.3669 82.7637 80.1773 80.763 80.1355 78.2504C80.0937 75.7377 82.0967 73.6669 84.6093 73.625C87.1221 73.5832 89.1928 75.5862 89.2346 78.0988V78.1751C89.2872 80.6331 87.3374 82.6686 84.8795 82.7219Z" fill="#0066C5"/>
</g>
</g>
<defs>
<clipPath id="clip0_1_1548">
<rect width="90" height="90" fill="white"/>
</clipPath>
</defs>
</svg>
