<svg width="90" height="90" viewBox="0 0 90 90" fill="none" xmlns="http://www.w3.org/2000/svg">
<g id="paypal 2" clip-path="url(#clip0_1_1570)">
<path id="Vector" d="M75.3884 23.2523C75.5408 22.014 75.6204 20.7531 75.6204 19.4736C75.6204 8.71875 66.9018 0 56.1468 0H23.6023C21.5552 0 19.8074 1.47832 19.4678 3.49699L7.47598 74.7719C7.04566 77.3295 9.01723 79.6602 11.6105 79.6602H23.5129C25.56 79.6602 27.3407 78.1829 27.6801 76.1641C27.6801 76.1641 27.7 76.0458 27.7358 75.8327H27.736L26.0773 85.6916C25.6983 87.9456 27.4359 90 29.7216 90H40.1344C41.9388 90 43.4793 88.6969 43.7785 86.9177L46.7367 69.336C47.2467 66.3052 49.8706 64.086 52.9437 64.086H55.6792C70.538 64.086 82.5833 52.0406 82.5833 37.182C82.5833 31.4323 79.7412 26.35 75.3884 23.2523Z" fill="#002987"/>
<path id="Vector_2" d="M75.3884 23.2523C73.5261 38.401 60.615 50.1311 44.9631 50.1311H35.8814C33.8316 50.1311 32.0613 51.4964 31.506 53.4268L26.0775 85.6913C25.6984 87.9455 27.436 90 29.7216 90H40.1344C41.9388 90 43.4793 88.697 43.7785 86.9177L46.7367 69.3361C47.2467 66.3052 49.8706 64.086 52.9437 64.086H55.6793C70.538 64.086 82.5833 52.0406 82.5833 37.182C82.5833 31.4323 79.7412 26.35 75.3884 23.2523Z" fill="#0085CC"/>
<path id="Vector_3" d="M35.8813 50.1311H44.9631C60.6152 50.1311 73.5263 38.401 75.3884 23.2526C72.5955 21.2652 69.1826 20.0924 65.4936 20.0924H41.7895C39.0908 20.0924 36.7864 22.0413 36.3386 24.7026L31.5058 53.4266C32.0611 51.4962 33.8316 50.1311 35.8813 50.1311Z" fill="#00186A"/>
</g>
<defs>
<clipPath id="clip0_1_1570">
<rect width="90" height="90" fill="white"/>
</clipPath>
</defs>
</svg>
