<svg width="90" height="72" viewBox="0 0 90 72" fill="none" xmlns="http://www.w3.org/2000/svg">
<g id="squarespace-seeklogo.com 1" clip-path="url(#clip0_1_1606)">
<g id="Group">
<path id="Vector" d="M57.2804 14.2978C55.5849 12.6022 52.8354 12.6022 51.1407 14.2978L23.509 41.9303C20.116 45.3206 14.6189 45.3206 11.2286 41.9303C7.83469 38.5392 7.83469 33.0411 11.2286 29.6481L38.3283 2.54834C34.9371 -0.843746 29.4382 -0.843746 26.047 2.54834L5.0861 23.5083C-1.69537 30.2916 -1.69537 41.2868 5.0861 48.071C11.8694 54.8543 22.8646 54.8543 29.6479 48.071L57.2804 20.4384C58.9751 18.7429 58.9751 15.9934 57.2804 14.2978ZM66.491 5.08812C59.7077 -1.69604 48.7125 -1.69604 41.9292 5.08812L14.2976 32.7189C12.6029 34.4136 12.6029 37.1649 14.2976 38.8596C15.9931 40.5551 18.7417 40.5551 20.4373 38.8596L48.0708 11.2288C51.462 7.83671 56.9591 7.83671 60.3494 11.2288C62.0468 12.9235 64.7954 12.9235 66.491 11.2288C68.1866 9.5314 68.1866 6.78372 66.491 5.08812ZM75.7024 32.7189C74.0069 31.0251 71.2565 31.0251 69.5609 32.7189L41.9292 60.3506C38.538 63.7417 33.0391 63.7417 29.6479 60.3506C27.9532 58.6559 25.2046 58.6559 23.509 60.3506C21.8107 62.047 21.8107 64.7965 23.509 66.4903C30.2896 73.2736 41.2875 73.2736 48.0708 66.4903L75.7024 38.8596C77.3971 37.1649 77.3971 34.4136 75.7024 32.7189ZM84.9139 23.5092C78.1306 16.7269 67.1336 16.7269 60.3521 23.5092L32.7187 51.1418C31.0231 52.8356 31.0231 55.5869 32.7187 57.2816C34.4152 58.9781 37.1646 58.9781 38.8593 57.2816L66.491 29.6499C69.8813 26.2578 75.3811 26.2578 78.7714 29.6499C82.1626 33.0411 82.1626 38.5392 78.7714 41.9303L51.6717 69.031C55.0629 72.4213 60.5591 72.4213 63.953 69.031L84.9139 48.071C91.6954 41.2868 91.6954 30.2916 84.9139 23.5092Z" fill="#1A1918"/>
</g>
</g>
<defs>
<clipPath id="clip0_1_1606">
<rect width="90" height="71.7188" fill="white"/>
</clipPath>
</defs>
</svg>
