<svg width="90" height="90" viewBox="0 0 90 90" fill="none" xmlns="http://www.w3.org/2000/svg">
<g id="twitter 2">
<path id="Logo_1_" d="M80.7877 26.6396C80.8416 27.4315 80.8416 28.2273 80.8416 29.0264C80.8416 53.4271 62.2656 81.5647 28.3032 81.5647V81.5503C18.2696 81.5639 8.44436 78.6893 0 73.2705C1.45881 73.4451 2.92641 73.534 4.39559 73.537C12.7118 73.5454 20.7889 70.7558 27.3277 65.617C19.4277 65.4686 12.4954 60.3158 10.0765 52.7938C12.8435 53.3267 15.6957 53.2183 18.4141 52.477C9.7984 50.7366 3.60246 43.1659 3.60018 34.3763C3.60018 34.297 3.60018 34.2179 3.60018 34.1423C6.16799 35.5737 9.04236 36.3665 11.9811 36.4535C3.86631 31.0347 1.36301 20.2412 6.26396 11.804C15.6401 23.3397 29.4729 30.3521 44.3195 31.0965C42.8312 24.684 44.8659 17.9638 49.6614 13.4539C57.0973 6.46098 68.7941 6.81993 75.787 14.2558C79.9221 13.4404 83.8876 11.9246 87.5122 9.77375C86.1339 14.0498 83.2488 17.6793 79.3942 19.987C83.0549 19.5544 86.6297 18.5751 89.9998 17.0819C87.521 20.7893 84.4014 24.0257 80.7877 26.6396Z" fill="#1D9BF0"/>
</g>
</svg>
