<svg width="116" height="28" viewBox="0 0 116 28" fill="none" xmlns="http://www.w3.org/2000/svg">
<g id="Walmart_logo 1" clip-path="url(#clip0_1_1588)">
<g id="Group">
<path id="Vector" d="M67.2801 14.9004C67.2801 12.1352 66.1043 9.69211 62.1277 9.69211C60.0875 9.69211 58.4668 10.2775 57.5882 10.7899L58.2322 13.0083C59.0412 12.4973 60.3321 12.0765 61.5505 12.0765C63.5637 12.0737 63.8935 13.2201 63.8935 13.9572V14.1347C59.4989 14.1275 56.7209 15.6561 56.7209 18.769C56.7209 20.6711 58.1313 22.4544 60.5966 22.4544C62.1007 22.4544 63.3717 21.8433 64.1309 20.8787H64.2048C64.2048 20.8787 64.7054 22.9869 67.4734 22.1811C67.3326 21.298 67.2801 20.3677 67.2801 19.237V14.9004ZM64.0016 17.8201C64.0016 18.0434 63.9831 18.2752 63.9177 18.4742C63.6646 19.3258 62.7917 20.0385 61.7055 20.0385C60.7885 20.0385 60.0691 19.5161 60.0691 18.4212C60.0691 16.7467 61.9059 16.2858 64.0016 16.2973" fill="#0071CE"/>
<path id="Vector_2" d="M0 5.92969C0 5.92969 2.87043 17.7517 3.32682 19.6667C3.86422 21.9052 4.82673 22.7324 7.60479 22.1814L9.39899 14.8506C9.85252 13.0343 10.161 11.7319 10.4539 9.88133H10.5036C10.707 11.7505 10.9999 13.0343 11.3709 14.8563C11.3709 14.8563 12.1031 18.1868 12.4827 19.9315C12.8523 21.6762 13.893 22.7768 16.6185 22.1814L20.8894 5.92969H17.4417L15.9759 12.9599C15.5877 14.9966 15.2351 16.601 14.9608 18.4673H14.911C14.6636 16.621 14.3494 15.0824 13.9457 13.0873L12.4273 5.92969H8.83031L7.20953 12.9041C6.74745 15.0338 6.31527 16.7413 6.04371 18.5489H5.99681C5.71674 16.8529 5.33714 14.6932 4.93477 12.6436C4.93477 12.6436 3.97226 7.65004 3.63249 5.92969" fill="#0071CE"/>
<path id="Vector_3" d="M30.4974 14.9004C30.4974 12.1352 29.3188 9.69211 25.3422 9.69211C23.3078 9.69211 21.6842 10.2775 20.8056 10.7899L21.4496 13.0083C22.2557 12.4973 23.5452 12.0765 24.7679 12.0765C26.781 12.0737 27.1109 13.2201 27.1109 13.9572V14.1347C22.7164 14.1275 19.9355 15.6561 19.9355 18.769C19.9355 20.6711 21.3515 22.4544 23.8054 22.4544C25.3237 22.4544 26.5835 21.8433 27.3426 20.8787H27.4194C27.4194 20.8787 27.9226 22.9869 30.6879 22.1811C30.5458 21.298 30.4974 20.3677 30.4974 19.237V14.9004ZM27.2161 17.8201C27.2161 18.0434 27.1976 18.2752 27.1351 18.4742C26.8791 19.3258 26.0062 20.0385 24.9172 20.0385C24.0058 20.0385 23.2836 19.5161 23.2836 18.4212C23.2836 16.7467 25.1204 16.2858 27.2161 16.2973" fill="#0071CE"/>
<path id="Vector_4" d="M32.2865 5.92969V22.1757H35.5678V18.7307V5.92969H32.2865Z" fill="#0071CE"/>
<path id="Vector_5" d="M77.3509 5.92969V17.9163C77.3509 19.5708 77.6594 20.7244 78.3233 21.4314C78.9063 22.0511 79.8602 22.4547 80.9962 22.4547C81.9715 22.4547 82.9254 22.2658 83.3761 22.1012L83.3363 19.5207C82.9994 19.5994 82.6141 19.6667 82.0852 19.6667C80.9649 19.6667 80.5953 18.9525 80.5953 17.4669V12.8783H83.4529V9.77399H80.5953V5.92969" fill="#0071CE"/>
<path id="Vector_6" d="M68.8698 9.97408V22.1811H72.262V15.9295C72.262 15.5931 72.2833 15.3026 72.3359 15.0335C72.589 13.7153 73.5827 12.8809 75.0144 12.8809C75.4139 12.8809 75.6854 12.9253 75.9869 12.9725V9.77228C75.7338 9.72648 75.5618 9.70215 75.2504 9.70215C73.9808 9.70215 72.542 10.5137 71.9349 12.2812H71.8511V9.97408" fill="#0071CE"/>
<path id="Vector_7" d="M37.4733 9.97408V22.1811H40.7787V15.0163C40.7787 14.68 40.8157 14.3365 40.9337 14.0259C41.2024 13.3003 41.8692 12.4601 42.9398 12.4601C44.2705 12.4601 44.8989 13.5908 44.8989 15.2224V22.1811H48.1959V14.9305C48.1959 14.6142 48.24 14.2263 48.3323 13.9458C48.5968 13.1228 49.319 12.4601 50.3171 12.4601C51.662 12.4601 52.3132 13.5665 52.3132 15.4901V22.1811H55.6073V14.9834C55.6073 11.2021 53.6965 9.70215 51.5269 9.70215C50.573 9.70215 49.8138 9.9383 49.1313 10.3619C48.5541 10.7183 48.048 11.2207 47.5945 11.8776H47.5447C47.023 10.5638 45.7974 9.70215 44.1965 9.70215C42.1436 9.70215 41.2109 10.7455 40.6622 11.6272H40.6124V9.97408" fill="#0071CE"/>
<path id="Vector_8" d="M101.206 9.42612C101.854 9.42612 102.4 9.08549 102.471 8.64753L103.114 1.3196C103.114 0.593965 102.265 0 101.206 0C100.141 0 99.2977 0.593965 99.2977 1.3196L99.946 8.64753C100.014 9.08549 100.557 9.42612 101.206 9.42612Z" fill="#FCB61A"/>
<path id="Vector_9" d="M97.2628 11.7192C97.5841 11.1467 97.5656 10.5112 97.2188 10.2278L91.2191 6.00423C90.595 5.63784 89.6608 6.07436 89.1263 6.99894C88.5931 7.92209 88.7012 8.95831 89.3125 9.31755L95.9548 12.4176C96.3799 12.5779 96.9358 12.2802 97.2628 11.7134" fill="#FCB61A"/>
<path id="Vector_10" d="M105.148 11.7132C105.487 12.28 106.043 12.5777 106.457 12.426L113.099 9.31731C113.716 8.95092 113.809 7.92472 113.287 7.00157C112.754 6.07699 111.814 5.64333 111.191 6.00257L105.19 10.2219C104.858 10.5095 104.834 11.1479 105.155 11.7189" fill="#FCB61A"/>
<path id="Vector_11" d="M101.206 18.5796C101.854 18.5796 102.4 18.9202 102.471 19.3582L103.114 26.6861C103.114 27.4118 102.265 28 101.206 28C100.141 28 99.2977 27.4118 99.2977 26.6861L99.946 19.3582C100.014 18.9202 100.557 18.5796 101.206 18.5796Z" fill="#FCB61A"/>
<path id="Vector_12" d="M105.148 16.2932C105.487 15.725 106.043 15.4216 106.457 15.5862L113.099 18.6891C113.716 19.0483 113.809 20.0831 113.287 21.0077C112.754 21.9251 111.814 22.3616 111.191 22.0024L105.19 17.7774C104.858 17.4926 104.834 16.8571 105.155 16.2932" fill="#FCB61A"/>
<path id="Vector_13" d="M97.2628 16.2867C97.5841 16.8578 97.5656 17.4919 97.2188 17.7781L91.2191 21.9959C90.595 22.3623 89.6608 21.9244 89.1263 21.007C88.5931 20.0838 88.7012 19.0476 89.3125 18.6884L95.9548 15.5854C96.3799 15.4223 96.9358 15.7228 97.2628 16.2867Z" fill="#FCB61A"/>
<path id="Vector_14" d="M115.043 21.3593H115.126C115.238 21.3593 115.284 21.3951 115.296 21.4853C115.32 21.5855 115.333 21.6528 115.357 21.6814H115.571C115.552 21.6599 115.528 21.6055 115.515 21.4796C115.491 21.3708 115.436 21.3092 115.357 21.2878V21.2677C115.465 21.2434 115.528 21.1704 115.528 21.0802C115.528 20.9986 115.491 20.94 115.454 20.9027C115.383 20.8684 115.315 20.8412 115.164 20.8412C115.03 20.8412 114.932 20.8526 114.854 20.8712V21.6814H115.043V21.3593ZM115.049 20.99L115.146 20.9772C115.259 20.9772 115.32 21.0301 115.32 21.1046C115.32 21.1876 115.238 21.2262 115.133 21.2262H115.049V20.99ZM115.17 20.4404C114.703 20.4404 114.334 20.8068 114.334 21.2563C114.334 21.7172 114.703 22.0836 115.17 22.0836C115.642 22.0836 116 21.7172 116 21.2563C116 20.8068 115.642 20.4404 115.17 20.4404ZM115.17 20.605C115.528 20.605 115.794 20.897 115.794 21.2563C115.794 21.6184 115.528 21.919 115.17 21.9133C114.811 21.9133 114.54 21.6184 114.54 21.2563C114.54 20.897 114.811 20.605 115.164 20.605" fill="#FCB61A"/>
</g>
</g>
<defs>
<clipPath id="clip0_1_1588">
<rect width="116" height="28" fill="white"/>
</clipPath>
</defs>
</svg>
