<svg width="90" height="36" viewBox="0 0 90 36" fill="none" xmlns="http://www.w3.org/2000/svg">
<g id="Wix.com_website_logo 1">
<path id="Vector" d="M51.5112 0.665635C49.7749 1.5338 49.0225 3.15438 49.0225 7.55309C49.0225 7.55309 49.8907 6.68493 51.2797 6.16403C52.2926 5.78782 53.0161 5.29586 53.537 4.91965C55.0418 3.79104 55.2733 2.43091 55.2733 0.0579176C55.2444 0.0579176 52.8714 -0.0867769 51.5112 0.665635Z" fill="#FBBD71"/>
<path id="Vector_2" d="M40.8907 1.67839C39.3859 2.92276 39.0096 5.06424 39.0096 5.06424L34.1479 23.7009L30.1543 8.45009C29.7781 6.82951 29.0257 4.83273 27.8971 3.44366C26.508 1.67839 23.6141 1.56263 23.2669 1.56263C23.0064 1.56263 20.1415 1.67839 18.6367 3.44366C17.508 4.83273 16.7556 6.82951 16.3794 8.45009L12.6174 23.7009L7.75563 5.06424C7.75563 5.06424 7.37942 3.06745 5.8746 1.67839C3.50161 -0.463094 0 0.0578065 0 0.0578065L9.26045 34.9292C9.26045 34.9292 12.2701 35.1896 13.7749 34.4372C15.7717 33.4244 16.7846 32.7009 17.9132 27.926C19.0418 23.672 22.0514 11.2861 22.283 10.4179C22.3987 10.0417 22.6592 8.91311 23.4116 8.91311C24.164 8.91311 24.4244 9.92597 24.5402 10.4179C24.8006 11.2861 27.7814 23.672 28.91 27.926C30.1543 32.672 31.0225 33.4244 33.0482 34.4372C34.5531 35.1896 37.5627 34.9292 37.5627 34.9292L46.7653 0.0578065C46.7653 0.0578065 43.2637 -0.434155 40.8907 1.67839Z" fill="black"/>
<path id="Vector_3" d="M55.2444 5.67197C55.2444 5.67197 54.6077 6.54013 53.3633 7.29255C52.4952 7.78451 51.7428 8.04496 50.8746 8.53692C49.3698 9.28933 48.9936 10.0417 48.9936 11.1704V11.5466V13.4276V13.8038V34.8134C48.9936 34.8134 51.3665 35.0739 52.8714 34.3215C54.8682 33.3086 55.2444 32.3247 55.2444 28.0707V7.06103V5.67197Z" fill="black"/>
<path id="Vector_4" d="M78.2508 17.5659L90 0.173575C90 0.173575 85.1383 -0.694592 82.6206 1.56264C81 2.95171 79.3794 5.55621 79.3794 5.55621L75.1254 11.807C74.865 12.1832 74.6334 12.4437 74.2572 12.4437C73.881 12.4437 73.5048 12.0675 73.3891 11.807L69.1351 5.55621C69.1351 5.55621 67.3987 3.06747 65.8939 1.56264C63.4051 -0.694592 58.5145 0.173575 58.5145 0.173575L69.8875 17.5369L58.254 34.9003C58.254 34.9003 63.3762 35.5369 65.8939 33.2797C67.5145 31.8906 69.0193 29.5176 69.0193 29.5176L73.2733 23.2668C73.5338 22.8906 73.7653 22.6302 74.1415 22.6302C74.5177 22.6302 74.8939 23.0064 75.0097 23.2668L79.2637 29.5176C79.2637 29.5176 80.8842 31.8906 82.3891 33.2797C84.8778 35.5369 89.8842 34.9003 89.8842 34.9003L78.2508 17.5659Z" fill="black"/>
</g>
</svg>
