<svg width="90" height="90" viewBox="0 0 90 90" fill="none" xmlns="http://www.w3.org/2000/svg">
<g id="youtube 2" clip-path="url(#clip0_1_1557)">
<g id="XMLID_184_">
<path id="XMLID_182_" d="M88.1193 23.1968C87.0843 19.2994 84.0347 16.2301 80.1624 15.1882C73.1438 13.2954 45 13.2954 45 13.2954C45 13.2954 16.8562 13.2954 9.8376 15.1882C5.96531 16.2299 2.91568 19.2994 1.88068 23.1968C0 30.2611 0 45 0 45C0 45 0 59.7389 1.88068 66.8032C2.91568 70.7006 5.96531 73.77 9.8376 74.8118C16.8562 76.7046 45 76.7046 45 76.7046C45 76.7046 73.1438 76.7046 80.1624 74.8118C84.0347 73.77 87.0843 70.7006 88.1193 66.8032C90 59.7389 90 45 90 45C90 45 90 30.2611 88.1193 23.1968Z" fill="#FF0000"/>
<path id="XMLID_1355_" d="M35.7954 58.3818L59.3181 45.0003L35.7954 31.618V58.3818Z" fill="white"/>
</g>
</g>
<defs>
<clipPath id="clip0_1_1557">
<rect width="90" height="90" fill="white"/>
</clipPath>
</defs>
</svg>
